<?xml version="1.0" encoding="utf-8"?>
<!-- Generator: Adobe Illustrator 17.1.0, SVG Export Plug-In . SVG Version: 6.00 Build 0)  -->
<!DOCTYPE svg PUBLIC "-//W3C//DTD SVG 1.1//EN" "http://www.w3.org/Graphics/SVG/1.1/DTD/svg11.dtd">
<svg version="1.1" id="Ebene_1" xmlns="http://www.w3.org/2000/svg" xmlns:xlink="http://www.w3.org/1999/xlink" x="0px" y="0px"
	 viewBox="0 0 960 463" enable-background="new 0 0 960 463" xml:space="preserve">
<g>
	<path d="M606.7,53.1c11.2,4,23.3,0.3,30.5-8.9c6.3-8.2,9.4-21.3,1.5-33.2c-5.9-8.6-14.4-12.4-23.8-10.6
		c-11.2,2.3-22.3,12.7-25.1,24.6c0,0-1.3,2.6-1.3,3c0,0.3,0,1.3,0,1.3V30C588.4,34.1,590.4,47.3,606.7,53.1z M740.3,202.5
		c-3-2-73.4-46.2-201.1-46.2c-52.5,0-107.4,6.9-163.8,20.6c-0.3,0-0.7,0-1-0.3c-0.3-0.3-0.3-0.3-0.3-0.7c-0.7-7.3-1.3-15-2-23.3
		c0-0.3,0-0.7,0.3-1c0.3-0.3,0.7-0.3,1-0.3c11.4,0.7,21.6-1.6,29.5-6.9c4.6-3,8.6-7.3,11.4-11.7c0.3-0.3,0.7-0.7,1-0.7
		c0.3,0,0.7,0,1,0.3c8.9,11.4,22.3,17,37.3,15.7c13.4-1.3,24.9-6.6,32.5-14.7c0.3-0.3,0.7-0.3,1-0.3s0.7,0.3,1,0.7
		c6.3,12.4,19,19,34.3,18c24.9-1.6,32.2-12.7,34-19.3c0.3-1.3,0.7-2.6,0.7-4c0-0.3,0.3-0.7,0.7-1c2-0.7,4-2,5.6-3
		c0.3-0.3,0.7-0.3,1-0.3c0.3,0,0.7,0.3,0.7,0.7c3.3,7.6,8.9,12.4,16,13.4c5.9,1,19,1.3,25.9-5.3c0.3-0.3,1.3-0.3,1.6,0
		c2,2,4.3,3.3,6.9,3.6l13,1.6c4,0.3,7.6-1,10.2-4c0,0,1.6-2,4.3-5.3c0.3-0.3,0.7-0.7,1-0.3c0.7,0.3,0.3,0.7,0.3,1.3v0.3v0.3
		c0,1.3,0,2.6,0,4.3c0,7.6,4.1,16.3,10.9,23.6c13,13.7,35.1,18,50.1,15c14.4-2.6,26.6-12,31.5-24.6c1.6-4,2.3-7.9,2.3-11.7
		c0-5.6-1.6-11.4-4.9-17c-0.3-0.3-0.3-0.7,0-1c0-0.3,0.3-0.7,0.7-0.7c3-0.7,4.6-2,5.6-2.6c4.6-3.3,6.9-8.9,6.9-15.7
		c0-4.6-1-9.9-3-14.4c-3-7.6-9.2-12.7-17.3-15c-12.7-3.3-27.5,1.6-35.3,7.9l0,0c-0.3,0.3-0.7,0.3-1,0.3c-0.3,0-0.7-0.3-0.7-0.7
		c-0.7-1.6-1.6-3-2.6-4c-0.3-0.3-0.3-0.7-0.3-1s0.3-0.7,0.7-0.7c2.3-1.3,4.3-2.6,5.9-4.3c4.9-4.9,7.9-11.2,7.9-17.3
		c0-4-1-8.4-3-12.4c-4.3-8.2-12.7-12.4-22.6-12.4h-0.3h-1.3c-16.7,1.6-22.3,11.7-24.2,20.1c-0.3,2-0.7,4.3-0.7,6.3
		c0,5.6,2,10.9,5.3,15.2c0.3,0.3,0.3,0.7,0.3,1s-0.3,0.7-0.7,0.7c-0.7,0.3-1.3,0.7-2,1c-0.7,0.3-1.3,0.3-1.6-0.3
		c-4.6-6.3-11.7-9.9-20-10.9c-9.2-1-20,0.3-29.2,4.3c-0.3,0.3-1,0-1.3-0.3c-4.6-4.9-10.6-7.6-17-7.3c-4.9,0-8.9,1.3-12,3.6
		c-0.3,0.3-0.7,0.3-1,0.3s-0.7-0.3-0.7-0.7l-0.3-0.3l-0.7-1c-0.3-0.3-0.3-0.7-0.3-1c0-0.3,0.3-0.7,0.3-0.7c2.3-1.6,4.3-3.6,5.9-5.6
		c4-4.9,5.9-11.2,5.9-17.3c0-5.6-1.6-10.9-4.9-15.3c-5.9-8.6-14.4-12.2-23.9-10.6c-6.6,1.3-13.4,5.4-18.3,12c-1,0-1.3,0-1.6,0
		s-0.7-0.3-1-0.7c-2.6-5.3-6.6-9.4-11.4-12.7c-5.6-3.6-13-4.9-21.9-3.3c-6.6,1-11.4,2.6-13.7,4.3c-2.6,2.3-4.3,5.6-4.3,8.9
		c0,2.3,0.7,4.6,2,6.6c0,0,3.1,4.9,5.1,15.7c1,4.9,1.5,11.7,1.5,19.6v4.3v1c0,0.3-0.5,1-0.8,1s-1,0-1.3-0.3
		c-5.9-6.3-13.9-9.9-22.6-10.9c-17-2-36.3,5.9-46.2,18.6l-2,2.6l-0.3,0.3c-0.3,0.3-0.7,0.3-1,0.7c-0.3,0-0.7,0-1-0.3l-1.3-1.6
		c-6.6-6.9-15-11.2-24.6-11.4c-11.7-0.3-24.9,4.6-32.5,12c-3.3,3.3-5.6,5.9-7.9,8.6c-0.3,0.3-1,0.7-1.3,0.3c-3.6-1.3-7.3-2-11.7-2
		c-11.4,0-16.7,4.6-19,8.9c-0.3,0.7-1,0.7-1.3,0.3c-5.9-2.6-12.7-3.6-19.6-3c-8.6,1-15.7,4.9-20.6,11.4c-0.3,0.3-0.7,0.7-1.3,0.3
		c-3-1-5.9-1.6-8.9-1.6c-4.6-0.3-9.6,1-14,3.3c-0.3,0.3-1,0-1.3,0c-3.6-2.6-7.9-4.3-12-4.6c-7.3-0.3-13.7,1.6-18,5.9
		c-0.3,0.3-0.7,0.3-1.3,0.3c-0.3,0-0.7-0.7-0.7-1l-1-7.6c-2.6-17.6-3.3-45.2-3.3-45.5c0-4-2.3-7.6-5.6-9.6
		c-22.6-13.7-56.6,9.2-60.2,11.7c-16.7,12-37.9,37.6-50.1,60.9c-22.9,43.9-40.6,82.8-52.8,130.3c-5.3,20.3-6.9,34.6-7.3,43.5
		c-0.7,14,0.7,23.6,8.9,26.9c7.6,3,13.4-0.3,42.6-19c20-12.7,32.2-30.8,33.5-48.8c1.3-16,9.6-41.4,18.6-52
		c5.9-6.6,14.7-12.9,20.3-14.5c0.3,0,0.7,0,1,0c0.3,0,0.7,0.2,0.7,0.5c0.3,2.3,0.3,4,0.3,5.9c0,18.6-7.3,37.3-7.3,37.6
		c-0.7,1.3-0.7,2.5-0.7,4.1c0,2.6,1,5.3,2.6,7.1c2.6,3.3,6.9,4.6,11.2,4c1.6-0.3,39.3-8.2,49.5-35.6c0-0.3,0.3-0.7,0.7-0.7
		c0.3,0,0.7,0,1,0.3c2.6,2.6,5.3,3.6,6.3,4.3c8.9,3.6,19.6,1.6,30.5-6.3c10.6-7.6,12-25.9,12-36c0-0.3,0.3-0.7,0.3-1
		c0.3-0.3,0.7-0.3,1-0.3c7.3,2,13.7,0.7,18.3-1c0.3,0,1,0,1.3,0.3c0.3,0.3,0.3,0.7,0.3,1.3c-0.3,1-0.3,2.3-0.3,3.3
		c0,2.6,1,4.9,2.3,6.9c2.3,3,5.9,4.6,9.6,4.6l18.5-0.3c3,0,5.1-1.3,8.4-3.6V173c0-0.3,0.8-0.7,1.2-0.3c0.3,0.3,0.5,0.7,0.5,1.3
		l-2.6,9.2l-2.3,8.2c0,0.3-0.3,0.7-0.7,0.7c-50.8,16-102.1,36.9-153.6,62.8c-97,48.5-158.5,96.7-160.8,98.6c-2,1.6-3.3,3.6-4,6.3
		C4,360.5,0,375.5,0,395.8c0,42.9,20.3,62.8,21.3,63.8c2.3,2.3,5.6,3.3,8.6,3.3c3.3-0.3,6.3-1.6,8.2-4.3
		c0.7-0.7,54.1-64.8,143.8-127.7c48.8-34.3,99.6-62.2,150.9-82.8c0.3,0,1,0,1.3,0.3c9.6,8.2,22.6,10.9,37.3,7.6
		c6.3-1.3,26.6-6.9,26.6-19.3c0-3-1-5.6-3-8.2c-0.3-0.3-0.3-0.7-0.3-1c0-0.3,0.3-0.7,0.7-0.7c52.1-15,104.4-22.6,155.9-22.6
		c116.3,0,173.2,32.2,173.9,32.5c3,1.6,6.3,2,9.2,1c4.9-1.6,12.7-7.6,12.7-20.6c0-5.9-1.3-9.6-2.6-11.4
		C742.9,204.6,741.9,203.5,740.3,202.5z M168.4,121.2c0,0.3-0.3,0.7-0.3,0.7c-2.3,2-7.6,4.6-13.7,7.3c-0.3,0.3-1,0-1.3-0.3
		c-0.3-0.3-0.3-1-0.3-1.3c1.6-3.3,3.3-6.3,4.9-9.6c4-6.9,7.6-10.9,9.9-13.4c0.3-0.3,0.7-0.3,1.3-0.3c0.3,0.3,0.7,0.7,0.7,1v2.6
		C169.4,113.1,169.1,118.2,168.4,121.2z"/>
	<path fill="#FFFFFF" d="M546.1,53.1c7.9,3,16.3,0.3,21.9-6.6c5.6-7.3,5.9-16.7,1-24.2c-4-5.9-9.9-8.6-16.3-7.3
		c-8.6,1.6-17.3,10.6-19,19.6C532.6,39,534.3,48.4,546.1,53.1z M493.7,37.4c1,5.9,1.6,13.4,1.6,21.3c0,9.6-0.7,19-1.6,26.9l-1,6.6
		c-1,8.2-2,14.4-2,20.6c0,4,0.3,7.9,1.3,11.7c3,13,14.4,20.9,29.2,20c21.3-1.3,26.2-10.2,27.5-14c0.3-1,0.3-2,0.3-3
		c0-1.3-0.3-2.6-1-3.6c-0.3-0.3-0.3-0.7,0-1c0.3-0.3,0.7-0.7,1-0.7c5.3-0.7,11.4-3.3,14.4-8.9c1-2,1.3-4.9,1.3-8.2
		c0-2.6-0.3-5.3-0.3-7.6l-0.3-2.6c-0.3-5.6-0.3-10.9,0-15.7c0.3-8.2,0.3-13-2.3-16c-3-3.3-10.9-3.3-15.3-2.3c-5.3,1.3-8.6,4-9.6,7.9
		c-1.3,4.9-3,15-3,30.5v4.6c0,7.3,1,11.7,4,14.7c0.3,0.3,0.2,1-0.2,1.3c-0.3,0.3-0.7,0.7-1.3,0.3c-3-1-5.4-2.6-7.8-5.3
		c-3.3-3.3-4.5-12-4.5-26.2v-6.6v-0.7c0-4.9,0.3-11.2,1.6-18c1.3-7.6,1.6-15.7,1.6-21.6v-1c0-10.2-1.2-21.3-11.9-28.2
		c-9.2-5.9-25.4-0.7-27.1,0.3c-1,0.7-1.6,2-1.6,3.3c0,0.7,0.3,1.6,0.7,2.3C487.8,19.1,491.4,24.7,493.7,37.4z M570.6,95l-1,7.3
		c-1.6,12.4,2,26.9,12.4,28.9c7.3,1.3,17.3,0,20.3-4.3c0.7-0.7,1.3-1.6,1.3-7.6c0-4.6-0.3-11.7-1.3-21.6c0-0.7,0.3-1,0.7-1.3
		c4-1.3,6.9-1.3,8.6,0c4.6,4,3.3,18.6,1,27.9c-0.3,1,0,2.3,0.7,3.3s1.6,1.6,3,1.6l13,1.6c1.3,0,2.6-0.3,3.6-1.3
		c0.3-0.3,5.6-6.6,10.2-15c4.3-8.2,6.3-17.6,5.6-26.6c-1-11.4-8.6-19.3-19.6-20.6c-9.9-1-21.6,1-30.5,5.9c-0.7,0.3-1.3,0-1.6-0.3
		c-3.6-5.9-8.6-8.9-14.4-8.9c-4,0-6.6,1-8.2,2.6c-1,1-1.3,2.3-1.3,3.6C573.2,78.3,571.9,86.5,570.6,95z M663.9,67.2
		c6.6,4,17,2.3,23.6-4c5.9-5.6,7.3-14,3.3-21.3c-4-7.9-11.7-8.9-16-8.9h-0.3h-0.7c-4,0-14.7,2-17.3,14.7l0,0
		c-0.3,1.6-0.7,3.6-0.7,5.3C655.8,58.7,658.3,63.9,663.9,67.2z M654.5,125.8c0.3,0.3,0.7,0.7,0.7,1s-0.3,0.7-0.7,1
		c-1.3,1-2.3,2.3-2.6,4.3c-0.3,0.7-0.3,1.6-0.3,2.3c0,4.6,2.3,11.7,8.9,18.6c11.2,11.7,30.5,15.3,43.2,12.7
		c12-2.3,21.9-9.9,25.9-19.6c1-3,1.6-5.9,1.6-8.9c0-5.6-2-11.2-5.9-16.3c-3-4-6.9-7.3-10.9-10.2c-5.6-4.6-7.3-5.9-7.3-6.6
		c0-0.3,0-0.7,0-1s0.3-0.7,0.7-0.7c2.3-0.7,7.9,1.3,11.9,4.3c6.3,4.6,11.5,5.6,15,2.6c5.3-4,4.6-13.4,1.3-21.3
		c-2.3-5.3-6.6-8.9-12.4-10.6c-9.9-2.6-22.3,1.3-28.9,6.6c-13.4,10.9-9.6,21.9-6.3,31.5c1.3,3.6,2.6,7.6,3.3,11.7
		c0.7,3.6-0.7,5.3-1.6,6.3c-4,3.6-14,3-21.6,0.7c-3.6-1.3-5.3-2.6-6.6-4c-0.3-0.3-0.3-0.7-0.3-1.3c0.3-0.3,0.7-0.7,1-0.7
		c9.9-0.3,13-13.4,14.7-20l0.3-1.3c0.7-2,1.3-4.3,2-6.3c1.6-4.6,3-9.2,3-13.4c0-3.3-1-5.9-2.6-8.2c-5.9-7.3-21.6-3.3-24.9-2.6l0,0
		c-1,0.3-2,1-2.6,2.3c-0.3,0.7-0.3,1-0.3,1.6c0,0.3,0,1,0.3,1.6c0,0,0.3,1.6,0.3,4.9c0,3.6-0.7,10.2-3.3,20.3
		c-0.7,2-1.3,5.3-1.3,8.2s0.7,5.3,2,7.3C651.9,123.8,652.9,125.1,654.5,125.8z M609.6,46.3c9.6,3.6,17.8-1,22.1-6.6
		c4.3-5.6,7.3-15,1-24.2c-5.6-8.2-12.4-7.9-16.3-7.3l0,0c-8.6,1.6-17.3,10.2-19.3,19.3l-0.5,1v1.3v0.3
		C596.6,32.8,597.9,41.7,609.6,46.3z M226.8,198.9c6.3,2.6,14.5,0.7,23.1-5.3c5.6-4,8.6-15.3,8.6-30.5v-2.6
		c0-11.4-1.6-23.3-4.9-29.2c0,0,0,0,0-0.3c0-0.3,0.7-1,1-1.3c0.3-0.3,1-1,1.3-1l0,0h0.7c0.3,0,1.6,1,3,2.6c2,3,2.3,6.6,2.3,10.2
		c0,4.6,0.3,11.2,7.6,13.5c8.2,2.3,16.3-1.5,17.3-2.1c0.7-0.3,1.3-1,1.6-1.6c0.3-0.7,2-4.3,2-9.1l-0.3-2.6c-0.3-2.6-0.2-5.9-1.8-9.2
		v-0.3c0-0.3,0-0.7,0.3-1c0.3-0.3,0.7-0.3,1.3-0.3c4.9,2,7.6,7.6,7.6,16.7c0,9.6-3,19-3,19.3c0,0.3,0,1-0.3,1.3c0,1,0.3,1.6,0.7,2.3
		c0.7,1,2,1.6,3.3,1.6l18.3-0.3c1,0,2-0.7,3-1.3c0.3-0.3,10.2-11.4,9.6-36.9c-0.3-12.7-4.3-22.9-11.7-29.2c-6.3-5.6-14-7.9-23.3-6.9
		c-10.6,1-16,6.8-18.6,12.4c0,0.3-0.3-0.3-0.7-0.3c-0.3,0-0.7,0-1,0c-4,0-7.9-2.5-11.7-2.5c-6.3-0.3-11.2,3.1-14,5.4
		c-0.3,0.3-1.3,0.7-1.6,0.3c-2.3-2.6-6.3-5.8-11.4-6.1c-9.6-0.7-13,4.6-13.4,5.3c-0.3,0.7-0.7,1.6-0.7,2.3c0,0,0.7,8.9-0.3,18.3
		c-1,9.9-2,17.3-2.6,23.9c-1.6,12.4-2.6,20.6-1,31.2C218.6,193.6,223.2,197.2,226.8,198.9z M385.6,231.2c-3.3-2.3-9.6-6.3-14-23.9
		c-5.6-22.3-6.9-51.5-7.6-63.2c0-0.3,0-0.7,0.3-1s0.7-0.3,1-0.3c7.6,1.3,21.6,3,33.2-4.6c7.6-4.9,12.4-12.7,14.7-23.3
		c0-0.7,0.7-1,1-1c0.7,0,1,0.3,1,1c1,3,2,5.9,3.3,8.6c6.9,12.4,19.3,18.6,33.6,17.3c20.6-2,30.5-13,32.8-21.9c1-4.3,0.3-8.2-2.3-9.9
		c-3.6-2.3-6.6-0.3-8.6,1c-2.6,2-7.6,5.3-19.3,4.6c-4.9-0.3-8.9-2-11.4-4.9c-0.3-0.3-0.3-1-0.3-1.3c0.3-0.3,0.7-0.7,1-0.7
		c4.9,0,12.7,0,22.9-1.6c8.2-1.3,14.7-5.3,18-11.2c2.6-4.9,3-11.2,0.3-16.7c-4.3-9.9-12.7-16-23.9-17c-14.4-1.6-31.2,5.3-39.3,15.7
		c-3.3,4.3-5.9,9.6-7.3,15c0,0.3-0.7,1-1,1c-0.7,0-1-0.3-1-0.7c-1.6-4.9-4-9.6-7.3-12.7c-5.3-5.6-11.7-8.9-19.3-8.9
		c-9.9-0.3-20.6,3.6-27.2,9.9c-4.3,4.3-7.6,7.9-10.6,12.4c0,0.3-0.3,0.3-0.7,0.7c-0.3,0-0.7,0-1-0.3c-4.3-3-8.2-4-14-4
		c-13,0-13.7,7.3-13.7,8.2c0,1,0.3,2,1,3c0,0,3.3,3.6,6.3,7.3c13,16.7,11.2,44.5,9.9,55.9c-1,7.9-3.3,15-5.6,22.3
		c-4.6,14.7-9.2,29.9-1.6,46.5C335.7,247,350,253,368,249c5.3-1.3,20.6-5.9,20.6-12C389.9,233.8,387.3,232.2,385.6,231.2z
		 M441.6,91.2c3.3-4,6.1-5.6,9.4-5.3c2.6,0,3.8,1,3.8,3v0.3c0,1.3-0.7,2.6-3,3.3c-3.3,1-8.2,0.7-9.6,0.7c-0.3,0-0.7-0.3-0.7-0.7
		C441.6,92.2,441.6,91.5,441.6,91.2z M362.7,117.9c0.7-3.6,7.3-13.7,11.7-15c0.7,0,1,0,1.3,0.7l0.3,0.7c0.7,1.3,1,3,1,4.6
		c0,4.3-1.6,9.6-5.3,11.7c-2.3,1.6-5.3,1.3-8.9-1.6C362.7,118.9,362.4,118.2,362.7,117.9z M736.3,208.6c-0.7-0.3-18-11.4-51.1-22.6
		c-30.5-10.2-80.5-22.3-146-22.3c-51.5,0-105.4,6.9-160.5,20c-2,0.3-3.3,2.3-3,4.6c1,6.3,2,12,3.3,17c1.6,5.9,3.3,10.2,5.3,13.4
		c1,1.6,3,2.3,4.6,1.6c53.8-15.7,108-23.9,161.8-23.9c118.6,0,177.2,33.2,177.5,33.5c1,0.7,2.3,0.7,3.3,0.3c3-1,7.6-4.9,7.6-13.4
		c0-4.6-1-6.6-1.6-7.3C737.3,209.6,737,208.9,736.3,208.6z M323.3,235.2c-4-8.9-5.6-18-4.3-28.5c0-1.3-0.3-2.6-1.3-3.6
		c-1-1-2.6-1-3.6-0.7C141.9,258.6,13.7,358.5,12.5,359.5c-0.7,0.7-1.3,1.3-1.3,2.3c0,0.7-4,14.7-4,34.3c0,39.9,18,57.6,19,58.2
		c0.7,0.7,2,1.3,3,1c1,0,2.3-0.7,3-1.3c0.3-0.3,28.9-34.3,78.5-77.4c46.2-39.3,120.2-94.4,212.5-132.9c1-0.3,1.6-1.3,2.3-2.3
		c0.3-1,0.3-2.3-0.3-3.3L323.3,235.2z M46.4,305.6c3.6,1.3,7.9-0.3,35.6-18.3c18-11.7,29.2-27.2,30.2-42.9
		c1.3-17.3,10.2-44.9,20.6-56.6c7.9-8.9,24.2-20.6,31.2-18.3c2,0.7,3.3,3,3.6,6.9c3,22.9-7.3,48.5-7.3,48.8c-0.7,1.3-0.3,3,0.7,4
		s2.3,1.6,4,1.3c1.6-0.3,42.6-8.9,45.5-38.6c3-27.2,1.6-62.5-3.3-96.3c-2.6-18-3.6-45.9-3.6-46.2c0-1.3-0.7-2.6-2-3.3
		c-15-9.2-39.9,3-52.5,11.4c-16.3,11.4-36.6,35.6-48.2,58.2c-22.6,43.5-40.2,81.8-52.1,128.7c-4.9,19.6-6.6,33.6-6.9,41.9
		C41.4,303.6,44.7,304.9,46.4,305.6z M146.5,126.1c6.6-15,18-29.5,24.2-31.5c1.3-0.3,2-0.3,2.6,0.3c2.3,2.3,2.6,8.6,2.6,13.4
		c0,7.3-1,14-1.6,16c-1.3,3-15.3,10.2-30.2,15c-0.3,0-0.7,0-1-0.3c-0.3-0.3-0.3-0.7-0.3-1C142.7,136.7,143.7,132.7,146.5,126.1z"/>
	<g>
		<path fill="#005880" d="M658,79.9c-0.7,0-1,0.7-1,1.3c0.3,1,0.7,2.6,0.7,5.3c0,5.6-1.3,12.7-3.6,21.3c-0.7,3-1.3,5.3-1.3,7.3
			c0,2,0.3,3.6,1.3,4.9c1.3,2,3.6,3.3,7.3,4c8.2,1.3,10.9-9.2,12.7-16.7l0.3-1.3c0.7-2.3,1.3-4.3,2-6.6c2.3-7.3,4.6-13.7,1-18
			C673.5,76.6,660.6,79.6,658,79.9z"/>
		<path fill="#005880" d="M698.1,87.5c-5.9,4.9-7.9,9.6-7.9,14c0,4.3,1.6,8.6,3,12.7c1.3,4,3,7.9,3.6,12.4c0,0.7,0.3,1.6,0.3,2.3
			c0,3.3-1,5.6-3.3,7.6c-5.9,5.3-18.6,3.6-25.6,1.3c-5.3-1.6-7.6-4.5-9.2-6.1c-0.7-1-1.3-1.5-1.6-1.5c-0.3,0-0.7,0-0.7,0
			c-0.7,0-1,1.2-1.3,2.1c-0.7,3,0.7,10.2,7.6,17.5c9.9,10.2,27.9,14.2,39.6,11.9c10.6-2,19.6-8.7,22.9-17.3c2-4.9,3-12.7-3.6-21.6
			c-2.6-3.3-6.3-6.3-9.9-9.2c-4.9-4-9.2-7.3-8.9-10.6c0.3-2.3,1.3-3.6,3-4.3c4.3-1.6,12,1.6,16.3,4.9c5.6,4.3,8.9,4,10.2,2.6
			c3.3-2.6,2.6-10.6,0-16.7c-1.6-4.3-4.9-6.9-9.9-8.2C714.7,79.6,703.5,82.9,698.1,87.5z"/>
		<path fill="#005880" d="M582.4,68.6L582.4,68.6c-3.3,0-4.1,0.3-4.5,1c-0.3,0.3,0.5,0.3,0.5,0.7v3c0,7.9-1.8,15-3.1,22.6L574,103
			c-0.3,2-0.5,3.6-0.5,5.6c0,10.6,3.5,17.6,8.9,18.6c7.3,1.3,15.8-0.7,15.8-2.6c0,0,0,0,0-0.3c0-0.7,0.8-2,0.8-4
			c0-6.3-0.8-18.3-1.5-25.9l0,0l0,0c7.3-3.3,12.5-3.6,15.8-1c3,2.6,4.6,7.6,4.6,14.7c0,6.6-1.3,13.4-2,15.7c0,0.3,0,0.7,0.3,1
			s0.3,0.3,0.7,0.3l11.5,1.3c0.3,0,0.7,0,1-0.3c1.3-1.6,5.8-7.3,9.4-13.7c3.6-6.6,5.4-14,5.4-21.3v-3c-1.6-9.6-7.1-15-16.3-16.3
			c-11.2-1.3-24.7,1-32.8,8.9l0,0C595.6,78,591.8,68.2,582.4,68.6z"/>
		<path fill="#005880" d="M547.3,64.6L547.3,64.6c-4,1-6.3,2.6-6.9,5.3c-1.3,4.6-3.3,14.7-3.3,29.5v4.3c0,6.6,1,10.2,3.3,12.4
			c2,1.6,4.6,2.3,8.2,2c3.3-0.3,9.2-2.3,11.1-6.6c1.6-3.3,1-9.2,0.7-13.7l-0.3-2.6c-0.3-5.6-0.3-11.2,0-16
			c0.3-7.3,0.3-11.7-1.3-13.4C557.9,64.6,551.9,63.6,547.3,64.6z"/>
		<path fill="#005880" d="M492,16.4c-0.3,0-1,0.3-1,0.7c0,0.3,0,0.7,0,1c1.6,2.6,4.6,8.6,6.6,19c1,5.6,1.8,13.4,1.8,21.9
			c0,8.9-0.5,18.6-1.5,27.2l-1,6.6c-1,8.2-2,14.4-2,20c0,4,0.3,7.3,1.3,10.9c3,13.4,15,17.3,24.9,16.7c17-1.3,21.9-7.3,23.3-9.9
			c0.7-1.3,1-2.6,1-3.3l-0.3-1c0-0.7-0.3-0.7-0.7-0.7h-2c-3.6,0-10.4-0.3-17.3-7.3c-4-4-6.1-13.7-6.1-28.5v-7.3v-0.7
			c0-4.9,1.5-11.4,2.5-18.6c1.3-7.6,2.5-15.3,2.5-20.9v-0.7c0-9.9-1.5-19-10.6-24.9C507.2,12.5,496.3,15.1,492,16.4z"/>
		<path fill="#005880" d="M426.2,79.3L426.2,79.3c-9.2,12-10.6,29.2-3.6,42.2c5.9,10.9,17,16.3,29.9,15.3
			c18.6-1.6,27.2-11.2,29.2-19c0.7-2.6,0.3-4.9-0.7-5.6c-1.3-1-2.3,0-4,1c-3,2-8.6,5.9-21.9,5.3c-17-1-18.3-14.7-18.6-15.3l0,0
			c0,0,11.7,2,30.5-1c7.3-1,12.4-4.3,15-9.2c2.3-4,2.3-8.6,0-13.4c-4.9-10.9-14-14-20.6-14.7C448.8,63.6,433.5,69.9,426.2,79.3z
			 M451.5,82.9c4.3,0,6.9,2.3,6.9,5.9c0,3.3-1.6,5.3-5.3,6.6c-4.9,1.6-14.4,0.7-16,0C437.6,87.2,445.2,82.6,451.5,82.9z"/>
		<path fill="#005880" d="M362.7,82.9c-6.3,5.9-9.6,9.9-12.4,17l0,0c-6.3-5.6-9.6-6.9-16.3-6.9c-6.9,0-8.9,2.3-9.6,3.6
			c-0.3,0.3,0,1,0.3,1.3c1,1,3.6,4,6.3,7.3c7.9,9.9,11.7,23.9,11.7,41.9c0,5.6-0.3,11.2-1,17c-1,8.2-3.3,15.7-5.6,22.9
			c-3,9.2-5.6,17.6-5.6,26.9c0,5.9,1.3,11.4,3.6,17c4.6,10.2,12.7,15.3,24.2,15.7c13,0.3,25.6-6.6,27.1-8.6c0-0.3,0-0.3,0-0.7
			c0-0.3,0-0.3,0-0.7c0-0.7-0.3-1-1.6-1.6c-3.6-2.3-10.6-6.9-15.5-26.2c-7.3-29.2-7.4-70.4-7.4-70.8l0,0c0.3,0,21.6,7.3,36.5-2.6
			c8.6-5.6,13.5-16,14.5-30.5c0.7-8.6-2.3-17-7.6-22.9c-4.3-4.9-10.2-7.6-16.7-7.6C378.1,73.7,368.2,77.3,362.7,82.9z M359.1,121.2
			L359.1,121.2c-0.7-0.3-0.7-1.3-0.7-2.3s0.3-2.6,1-4c2.3-6.3,9.9-15.7,15.3-16c2,0,3.6,1.3,4.9,4c3,6.9,0.3,17-5.6,21.3
			C371.5,125.8,366.4,127.8,359.1,121.2z"/>
		<path fill="#005880" d="M294.3,98.9L294.3,98.9c-15,1.6-17.6,16.7-17.6,17.3l0,0l0,0c0-0.3-5.6-6.9-14.7-7.3
			c-9.2-0.3-15,7.9-15,7.9l0,0l0,0c0,0-4.3-8.9-11.7-9.6c-5.9-0.3-8.6,2-9.6,3c-0.3,0.3-0.3,0.7-0.3,0.7c0,1,0.3,4,0.3,7.6
			c0,4,0,7.6-0.3,10.9c-1,9.9-2,17.6-2.6,24.2c-1,8.2-1.6,14-1.6,20c0,3.3,0.3,6.6,0.7,9.9c1,5.9,3.3,9.6,7.3,11.2
			c4.9,2,11.2,0.3,18.5-4.9c3.6-2.6,6.3-12,6.3-27.2c0-1,0-1.6,0-2.6c0-15.7-3.8-32.5-3.8-32.5l0,0c0,0,3.6-2.6,7.6-2.3
			c2,0.3,4.1,1.3,5.8,3.6c3,4,3.1,8.2,3.5,12c0,4.6,0.3,8.2,4.6,9.6c5.9,1.6,12.2-0.7,13.9-1.6c0.3,0,1-0.3,1.2-0.7
			c0.3-1,1.8-3.6,1.8-6.9v-2c-3.3-8.6-4.5-14.4-4.5-14.4l0,0c0,0,2-3,8.6-0.3c6.9,2.6,10.1,9.6,10.1,20.3c0,3.3-0.3,6.6-1,10.6
			c-0.3,3-1,5.6-1.3,7.3l-0.3,1.3c0,0.3,0,0.7,0.3,1c0.3,0.3,0.7,0.3,1,0.3l16-0.3c0.3,0,0.7-0.3,1-0.3c1.3-1.6,8.2-11.4,8.2-31.5
			v-2.3c0-11.4-4.3-20.6-10.6-26.2C309.3,100.2,302,98.3,294.3,98.9z"/>
		<path fill="#005880" d="M151.8,60.3c-15.7,11.2-35.3,35-46.8,56.9C82.3,160.4,65,198.7,53.1,244.9c-5.9,23.9-6.9,39.3-6.9,46.5
			c0,3,0.3,8.6,1.3,9.9c0.3,0.3,0.3,0.3,0.7,0.3c2.6,0.3,12.7-5.9,31.8-18c17-10.9,27.2-25.6,28.2-39.9
			c1.3-18.3,10.6-46.5,21.6-59.2c7.6-8.2,25.6-22.6,35-19.6c3.6,1,5.9,4.6,6.6,10.2c0.3,3,0.7,5.9,0.7,8.9c0,17-5.3,33.6-7.6,39.9
			c0,0.3,0,1,0.3,1c0.3,0.3,0.7,0.3,1,0.3c8.9-2.3,37.9-11.4,40.2-34.6c1-9.6,1.6-20.3,1.6-31.8c0-20.3-1.6-42.2-4.6-63.5
			c-2.3-16.7-3.3-41.2-3.6-46.2c0-0.3-0.3-0.7-0.7-1C186.6,42,164,51.7,151.8,60.3z M138.7,139.5c0-1.3,0.3-3,0.7-4.9
			C142.7,120.9,159,94,169.9,91c3-0.7,5.3-0.3,6.9,2c6.3,7.3,3,30.5,1.3,33.6c-2.6,5.6-21.3,13.7-33.2,17.3c-2.3,0.7-4,0.7-4.9-0.3
			C139.1,142.8,138.7,141.5,138.7,139.5z"/>
		<path fill="#005880" d="M380.7,187.7c-0.7,0-1,0.7-1,1.3c1,5.9,2,11.2,3.3,15.7c1.3,4.9,2.6,8.9,4.3,11.7c0.3,0.3,0.7,0.7,1.3,0.7
			c54.1-15.7,108.4-23.9,162.1-23.9c114.3,0,172.9,30.5,179.1,33.6c0.3,0.3,0.7,0.3,1,0c1.3-0.7,4.3-3,4.3-9.6
			c0-2.6-0.3-4.3-0.7-4.9c0-0.3-0.3-0.3-0.3-0.7c-3-1.6-73.4-43.9-194.5-43.9C488.4,167.7,435,174.6,380.7,187.7z M313.6,206.6
			C145.6,262.1,20.1,358.2,14.8,362.5c-0.3,0-0.3,0.3-0.3,0.7c-0.7,2.3-3.6,15.3-3.6,32.8c0,32.8,12.7,50.1,16.7,54.8
			c0.3,0.3,0.7,0.3,1,0.3c0.3,0,0.7,0,1-0.3c5.3-5.9,32.8-37.6,78.2-76.7c46.2-39.3,120.1-94.7,212.8-132.9c0.3,0,0.5-0.3,0.5-0.7
			c0-0.3,0-0.7,0-1l-1.2-2.6c-3.3-7.6-4.8-15-4.8-23.3c0-1.6,0-3.6,0.3-5.6c0-0.3,0-0.7-0.3-1C314.2,206.6,313.9,206.6,313.6,206.6z
			"/>
	</g>
	<path fill="#B5041E" d="M674.1,38.1c-6.6,0.3-12,2.6-14,10.9c-1.3,6.9,0.7,11.4,5.6,14.4c9.6,5.6,28.9-4.6,21.3-19.3
		c-3.3-6.3-10.6-6.9-15.7-5.6"/>
	<path fill="#F8DB00" d="M617.4,12.2c-7.3,1.3-14.2,9.2-15.8,16.7c0,0,0,0,0,0.3v1.3c0,2.6,0.7,8.9,9.9,12c7.6,2.6,14-1,17.2-5.3
		c3.6-4.6,5.6-12,0.7-19.3C625.5,11.8,620.7,11.5,617.4,12.2z"/>
	<path fill="#64A138" d="M547.3,49.1c14.4,5.3,26.6-12,18-24.6c-9.6-13.7-25.9-0.3-28.2,11.2C537.2,35.7,535.6,45,547.3,49.1z"/>
	<path fill="none" stroke="#000000" stroke-width="8.7718" stroke-linejoin="round" stroke-miterlimit="10" d="M912.5,71.5
		c-28.2-4-35.6,7.3-40.6,43.2c-4.5,32.8-3.3,71.9-3.3,71.9s32.8,10.6,54.9,13.4c17,2.1,24.2-2,27.7-25.1c1.8-11.5,0.2-17.5,0.2-17.5
		s-13.2,2.3-23.9,2.5c-10.7,0-20.5-1.3-20.5-1.3s0.5-13.5,8.1-40.1c5.3-18.6,16.3-37.8,16.3-37.8S926.5,73.5,912.5,71.5z"/>
	<g>
		<path fill="#FFC700" d="M930.8,198.2c-2,0-4.1-0.2-6.8-0.5c-18.8-2.5-46-10.6-52.9-12.7c-0.2-7.9-0.5-41.4,3.3-69.9
			c4.5-32.5,10.7-41.9,28.5-41.9c2.8,0,5.8,0.2,9.2,0.7c9.6,1.3,14.5,5.3,16.5,7.1c-2.6,4.9-11.2,20.9-15.7,36.8
			c-7.6,26.6-8.1,40.1-8.2,40.7c0,1.3,0.8,2,2.1,2.1c0.3,0,9.7,1,20.1,1h0.7c8.1,0,17.5-1.2,21.9-1.8c0.3,2.6,0.5,7.6-0.7,14.5
			C946,194.4,940.5,198.2,930.8,198.2z"/>
		<path fill="#FFFFFF" d="M902.9,75.5c2.6,0,5.6,0.2,8.9,0.7c7.1,1,11.5,3.5,13.9,5.3c-3.5,6.4-10.9,21.1-15,35.6
			c-7.8,26.9-8.2,40.7-8.2,41.2c-0.2,2.5,1.6,4.8,4.1,5.1c0.3,0,9.9,1.5,20.5,1.5h0.7c6.9,0,14.7-1.2,19.6-1.8
			c0.2,2.6,0,6.3-0.8,11.1c-3.1,20.1-8.2,21.4-15.8,21.4c-1.8,0-4-0.2-6.4-0.5c-17.3-2.3-42.1-9.6-50.8-12.2
			c-0.2-10.2-0.2-41.2,3.3-67.8C881,84.1,886.6,75.5,902.9,75.5 M902.9,70.7c-20.5,0-26.7,12.5-30.8,44c-4.5,32.8-3.3,71.9-3.3,71.9
			s32.8,10.6,54.9,13.4c2.6,0.3,4.9,0.5,7.1,0.5c12,0,17.6-5.9,20.6-25.6c1.8-11.5,0.2-17.3,0.2-17.3s-13.2,2.5-23.9,2.5
			c-0.2,0-0.5,0-0.7,0c-10.4,0-19.8-1.3-19.8-1.3s0.5-13.5,8.1-40.2c5.3-18.6,16.3-37.8,16.3-37.8s-5.1-7.3-19.1-9.2
			C909,71,905.9,70.7,902.9,70.7L902.9,70.7z"/>
	</g>
	<path fill="none" stroke="#000000" stroke-width="8.7718" stroke-linejoin="round" stroke-miterlimit="10" d="M791.1,61.1
		c0,0-26.2,12.5-25.6,25.6c0.5,9.4,31.5,40.7,31.5,40.7s-13.4,15.3-23.3,22.9c-10.4,7.9-16.2,12.4-16.2,12.4s8.2,17.2,24.4,16.3
		c6.8-0.3,31.7-26.7,31.7-26.7s23.4,32,30.7,31.7c9.9-0.5,27.1-20.8,27.1-20.8s-9.1-4.3-20-14c-9.9-9.1-18.6-18.1-18.6-18.1
		s8.4-9.9,19.3-19.5c9.6-8.6,21.4-16.3,21.4-16.3s-6.8-23.6-22.9-22.8c-9.9,0.5-35,35.5-35,35.5s-7.6-10.1-13.5-21.8
		C796,74,791.1,61.1,791.1,61.1z"/>
	<g>
		<path fill="#FFC700" d="M844.2,181.6c-3.6,0-17.8-15.8-28.5-30.7c-0.5-0.7-1.2-1-1.8-1h-0.2c-0.7,0-1.3,0.3-1.8,0.8
			c-11.7,12.4-26.4,25.9-30,26.1c-0.3,0-0.7,0-1,0c-10.9,0-17.8-9.4-20.1-13.2c2.5-1.8,7.4-5.6,14.5-11.2
			c9.9-7.6,22.9-22.6,23.6-23.3c0.8-1,0.8-2.3-0.2-3.3c-11.7-11.9-30.4-33-30.7-39.1c-0.5-8.4,14-17.8,21.8-22.1
			c1.8,4.5,5.6,13.9,10.2,22.6c6.1,11.7,13.5,21.9,13.7,22.3c0.5,0.7,1.2,1.2,2,1.2l0,0c0.8,0,1.5-0.7,2-1.3
			c10.2-14.2,27.2-34.3,33.2-34.6c0.3,0,0.5,0,0.7,0c11.2,0,17.3,14.4,19.1,19.3c-3.5,2.5-12.4,8.6-20.1,15.5
			c-10.7,9.6-19.1,19.3-19.5,19.8c-0.8,1-0.8,2.3,0.2,3.3c0.2,0.2,8.9,9.2,18.8,18.3c7.4,6.8,14.2,11.1,17.6,13
			C861.9,170,850.6,181.6,844.2,181.6L844.2,181.6z"/>
		<path fill="#FFFFFF" d="M788.6,67.9c2,4.9,5.4,12.7,9.2,20.3c6.1,11.9,13.7,21.8,14,22.3c1,1.2,2.3,1.8,3.8,1.8l0,0
			c1.5,0,3-0.7,3.8-1.8c12.5-17.3,27.2-33,31.3-33.5c0.2,0,0.3,0,0.7,0c8.6,0,14,10.6,16.2,16.2c-4.3,3-12,8.6-18.8,14.5
			c-10.9,9.6-19.3,19.6-19.8,20c-1.6,1.8-1.5,4.6,0.2,6.4c0.3,0.3,8.9,9.4,18.8,18.3c6.1,5.6,11.7,9.4,15.5,11.7
			c-6.4,6.8-15,14.2-19.5,14.7c-3.5-1.2-14.8-13.2-26.9-29.7c-0.8-1.2-2.1-1.8-3.6-2c-0.2,0-0.2,0-0.3,0c-1.3,0-2.6,0.5-3.5,1.5
			c-10.7,11.4-24.7,24.2-28.5,25.2c-0.3,0-0.5,0-0.8,0c-8.2,0-14-6.3-17-10.2c2.8-2.1,7.1-5.4,12.7-9.7
			c10.1-7.8,23.4-22.9,23.9-23.6c1.6-2,1.5-4.8-0.2-6.6c-16-16.2-29.7-33.3-30-37.6C770,80.8,779.7,73,788.6,67.9 M791.1,61.1
			c0,0-26.2,12.5-25.6,25.6c0.5,9.4,31.5,40.7,31.5,40.7s-13.4,15.3-23.3,22.9c-10.4,7.9-16.2,12.4-16.2,12.4s7.9,16.3,23.3,16.3
			c0.3,0,0.8,0,1.2,0c6.8-0.3,31.7-26.7,31.7-26.7s23.1,31.7,30.5,31.7h0.2c9.9-0.5,27.1-20.8,27.1-20.8s-9.1-4.3-20-14
			c-9.9-9.1-18.6-18.1-18.6-18.1s8.4-9.9,19.3-19.5c9.6-8.6,21.4-16.3,21.4-16.3s-6.4-22.8-21.9-22.8c-0.3,0-0.5,0-0.8,0
			c-9.9,0.5-35,35.5-35,35.5s-7.6-10.1-13.5-21.8C796,74,791.1,61.1,791.1,61.1L791.1,61.1z"/>
	</g>
</g>
</svg>
