<?xml version="1.0" encoding="utf-8"?>
<!-- Generator: Adobe Illustrator 17.1.0, SVG Export Plug-In . SVG Version: 6.00 Build 0)  -->
<!DOCTYPE svg PUBLIC "-//W3C//DTD SVG 1.1//EN" "http://www.w3.org/Graphics/SVG/1.1/DTD/svg11.dtd">
<svg version="1.1" id="Ebene_1" xmlns="http://www.w3.org/2000/svg" xmlns:xlink="http://www.w3.org/1999/xlink" x="0px" y="0px"
	 viewBox="215 288 582 280.6" enable-background="new 215 288 582 280.6" xml:space="preserve">
<path d="M583.1,320c6.8,2.4,14.1,0.2,18.5-5.4c3.8-5,5.7-12.9,0.9-20.1c-3.6-5.2-8.7-7.5-14.4-6.4c-6.8,1.4-13.5,7.7-15.2,14.9
	c0,0-0.8,1.6-0.8,1.8c0,0.2,0,0.8,0,0.8v0.4C572,308.5,573.2,316.5,583.1,320z M664.1,410.6c-1.8-1.2-44.5-28-121.9-28
	c-31.8,0-65.1,4.2-99.3,12.5c-0.2,0-0.4,0-0.6-0.2c-0.2-0.2-0.2-0.2-0.2-0.4c-0.4-4.4-0.8-9.1-1.2-14.1c0-0.2,0-0.4,0.2-0.6
	c0.2-0.2,0.4-0.2,0.6-0.2c6.9,0.4,13.1-1,17.9-4.2c2.8-1.8,5.2-4.4,6.9-7.1c0.2-0.2,0.4-0.4,0.6-0.4s0.4,0,0.6,0.2
	c5.4,6.9,13.5,10.3,22.6,9.5c8.1-0.8,15.1-4,19.7-8.9c0.2-0.2,0.4-0.2,0.6-0.2s0.4,0.2,0.6,0.4c3.8,7.5,11.5,11.5,20.8,10.9
	c15.1-1,19.5-7.7,20.6-11.7c0.2-0.8,0.4-1.6,0.4-2.4c0-0.2,0.2-0.4,0.4-0.6c1.2-0.4,2.4-1.2,3.4-1.8c0.2-0.2,0.4-0.2,0.6-0.2
	s0.4,0.2,0.4,0.4c2,4.6,5.4,7.5,9.7,8.1c3.6,0.6,11.5,0.8,15.7-3.2c0.2-0.2,0.8-0.2,1,0c1.2,1.2,2.6,2,4.2,2.2l7.9,1
	c2.4,0.2,4.6-0.6,6.2-2.4c0,0,1-1.2,2.6-3.2c0.2-0.2,0.4-0.4,0.6-0.2c0.4,0.2,0.2,0.4,0.2,0.8v0.2v0.2c0,0.8,0,1.6,0,2.6
	c0,4.6,2.5,9.9,6.6,14.3c7.9,8.3,21.3,10.9,30.4,9.1c8.7-1.6,16.1-7.3,19.1-14.9c1-2.4,1.4-4.8,1.4-7.1c0-3.4-1-6.9-3-10.3
	c-0.2-0.2-0.2-0.4,0-0.6c0-0.2,0.2-0.4,0.4-0.4c1.8-0.4,2.8-1.2,3.4-1.6c2.8-2,4.2-5.4,4.2-9.5c0-2.8-0.6-6-1.8-8.7
	c-1.8-4.6-5.6-7.7-10.5-9.1c-7.7-2-16.7,1-21.4,4.8l0,0c-0.2,0.2-0.4,0.2-0.6,0.2s-0.4-0.2-0.4-0.4c-0.4-1-1-1.8-1.6-2.4
	c-0.2-0.2-0.2-0.4-0.2-0.6c0-0.2,0.2-0.4,0.4-0.4c1.4-0.8,2.6-1.6,3.6-2.6c3-3,4.8-6.8,4.8-10.5c0-2.4-0.6-5.1-1.8-7.5
	c-2.6-5-7.7-7.5-13.7-7.5H625h-0.8c-10.1,1-13.5,7.1-14.7,12.2c-0.2,1.2-0.4,2.6-0.4,3.8c0,3.4,1.2,6.6,3.2,9.2
	c0.2,0.2,0.2,0.4,0.2,0.6c0,0.2-0.2,0.4-0.4,0.4c-0.4,0.2-0.8,0.4-1.2,0.6c-0.4,0.2-0.8,0.2-1-0.2c-2.8-3.8-7.1-6-12.1-6.6
	c-5.6-0.6-12.1,0.2-17.7,2.6c-0.2,0.2-0.6,0-0.8-0.2c-2.8-3-6.4-4.6-10.3-4.4c-3,0-5.4,0.8-7.3,2.2c-0.2,0.2-0.4,0.2-0.6,0.2
	s-0.4-0.2-0.4-0.4l-0.2-0.2l-0.4-0.6c-0.2-0.2-0.2-0.4-0.2-0.6c0-0.2,0.2-0.4,0.2-0.4c1.4-1,2.6-2.2,3.6-3.4c2.4-3,3.6-6.8,3.6-10.5
	c0-3.4-1-6.6-3-9.3c-3.6-5.2-8.7-7.4-14.5-6.4c-4,0.8-8.1,3.3-11.1,7.3c-0.6,0-0.8,0-1,0s-0.4-0.2-0.6-0.4c-1.6-3.2-4-5.7-6.9-7.7
	c-3.4-2.2-7.9-3-13.3-2c-4,0.6-6.9,1.6-8.3,2.6c-1.6,1.4-2.6,3.4-2.6,5.4c0,1.4,0.4,2.8,1.2,4c0,0,1.9,3,3.1,9.5
	c0.6,3,0.9,7.1,0.9,11.9v2.6v0.6c0,0.2-0.3,0.6-0.5,0.6c-0.2,0-0.6,0-0.8-0.2c-3.6-3.8-8.4-6-13.7-6.6c-10.3-1.2-22,3.6-28,11.3
	l-1.2,1.6l-0.2,0.2c-0.2,0.2-0.4,0.2-0.6,0.4c-0.2,0-0.4,0-0.6-0.2l-0.8-1c-4-4.2-9.1-6.8-14.9-6.9c-7.1-0.2-15.1,2.8-19.7,7.3
	c-2,2-3.4,3.6-4.8,5.2c-0.2,0.2-0.6,0.4-0.8,0.2c-2.2-0.8-4.4-1.2-7.1-1.2c-6.9,0-10.1,2.8-11.5,5.4c-0.2,0.4-0.6,0.4-0.8,0.2
	c-3.6-1.6-7.7-2.2-11.9-1.8c-5.2,0.6-9.5,3-12.5,6.9c-0.2,0.2-0.4,0.4-0.8,0.2c-1.8-0.6-3.6-1-5.4-1c-2.8-0.2-5.8,0.6-8.5,2
	c-0.2,0.2-0.6,0-0.8,0c-2.2-1.6-4.8-2.6-7.3-2.8c-4.4-0.2-8.3,1-10.9,3.6c-0.2,0.2-0.4,0.2-0.8,0.2c-0.2,0-0.4-0.4-0.4-0.6l-0.6-4.6
	c-1.6-10.7-2-27.4-2-27.6c0-2.4-1.4-4.6-3.4-5.8c-13.7-8.3-34.3,5.6-36.5,7.1c-10.1,7.3-23,22.8-30.4,36.9
	c-13.9,26.6-24.6,50.2-32,79c-3.2,12.3-4.2,21-4.4,26.4c-0.4,8.5,0.4,14.3,5.4,16.3c4.6,1.8,8.1-0.2,25.8-11.5
	c12.1-7.7,19.5-18.7,20.3-29.6c0.8-9.7,5.8-25.1,11.3-31.5c3.6-4,8.9-7.8,12.3-8.8c0.2,0,0.4,0,0.6,0c0.2,0,0.4,0.1,0.4,0.3
	c0.2,1.4,0.2,2.4,0.2,3.6c0,11.3-4.4,22.6-4.4,22.8c-0.4,0.8-0.4,1.5-0.4,2.5c0,1.6,0.6,3.2,1.6,4.3c1.6,2,4.2,2.8,6.8,2.4
	c1-0.2,23.8-5,30-21.6c0-0.2,0.2-0.4,0.4-0.4c0.2,0,0.4,0,0.6,0.2c1.6,1.6,3.2,2.2,3.8,2.6c5.4,2.2,11.9,1,18.5-3.8
	c6.4-4.6,7.3-15.7,7.3-21.8c0-0.2,0.2-0.4,0.2-0.6c0.2-0.2,0.4-0.2,0.6-0.2c4.4,1.2,8.3,0.4,11.1-0.6c0.2,0,0.6,0,0.8,0.2
	c0.2,0.2,0.2,0.4,0.2,0.8c-0.2,0.6-0.2,1.4-0.2,2c0,1.6,0.6,3,1.4,4.2c1.4,1.8,3.6,2.8,5.8,2.8l11.2-0.2c1.8,0,3.1-0.8,5.1-2.2v-0.2
	c0-0.2,0.5-0.4,0.7-0.2c0.2,0.2,0.3,0.4,0.3,0.8l-1.6,5.6l-1.4,5c0,0.2-0.2,0.4-0.4,0.4c-30.8,9.7-61.9,22.4-93.1,38.1
	c-58.8,29.4-96.1,58.6-97.5,59.8c-1.2,1-2,2.2-2.4,3.8c-0.2,0.4-2.6,9.5-2.6,21.8c0,26,12.3,38.1,12.9,38.7c1.4,1.4,3.4,2,5.2,2
	c2-0.2,3.8-1,5-2.6c0.4-0.4,32.8-39.3,87.2-77.4c29.6-20.8,60.4-37.7,91.5-50.2c0.2,0,0.6,0,0.8,0.2c5.8,5,13.7,6.6,22.6,4.6
	c3.8-0.8,16.1-4.2,16.1-11.7c0-1.8-0.6-3.4-1.8-5c-0.2-0.2-0.2-0.4-0.2-0.6c0-0.2,0.2-0.4,0.4-0.4c31.6-9.1,63.3-13.7,94.5-13.7
	c70.5,0,105,19.5,105.4,19.7c1.8,1,3.8,1.2,5.6,0.6c3-1,7.7-4.6,7.7-12.5c0-3.6-0.8-5.8-1.6-6.9
	C665.7,411.9,665.1,411.2,664.1,410.6z M317.4,361.3c0,0.2-0.2,0.4-0.2,0.4c-1.4,1.2-4.6,2.8-8.3,4.4c-0.2,0.2-0.6,0-0.8-0.2
	c-0.2-0.2-0.2-0.6-0.2-0.8c1-2,2-3.8,3-5.8c2.4-4.2,4.6-6.6,6-8.1c0.2-0.2,0.4-0.2,0.8-0.2c0.2,0.2,0.4,0.4,0.4,0.6v1.6
	C318,356.4,317.8,359.5,317.4,361.3z"/>
<path fill="#FFFFFF" d="M546.4,320c4.8,1.8,9.9,0.2,13.3-4c3.4-4.4,3.6-10.1,0.6-14.7c-2.4-3.6-6-5.2-9.9-4.4
	c-5.2,1-10.5,6.4-11.5,11.9C538.2,311.5,539.2,317.2,546.4,320z M514.6,310.5c0.6,3.6,1,8.1,1,12.9c0,5.8-0.4,11.5-1,16.3l-0.6,4
	c-0.6,5-1.2,8.7-1.2,12.5c0,2.4,0.2,4.8,0.8,7.1c1.8,7.9,8.7,12.7,17.7,12.1c12.9-0.8,15.9-6.2,16.7-8.5c0.2-0.6,0.2-1.2,0.2-1.8
	c0-0.8-0.2-1.6-0.6-2.2c-0.2-0.2-0.2-0.4,0-0.6c0.2-0.2,0.4-0.4,0.6-0.4c3.2-0.4,6.9-2,8.7-5.4c0.6-1.2,0.8-3,0.8-5
	c0-1.6-0.2-3.2-0.2-4.6l-0.2-1.6c-0.2-3.4-0.2-6.6,0-9.5c0.2-5,0.2-7.9-1.4-9.7c-1.8-2-6.6-2-9.3-1.4c-3.2,0.8-5.2,2.4-5.8,4.8
	c-0.8,3-1.8,9.1-1.8,18.5v2.8c0,4.4,0.6,7.1,2.4,8.9c0.2,0.2,0.1,0.6-0.1,0.8c-0.2,0.2-0.4,0.4-0.8,0.2c-1.8-0.6-3.3-1.6-4.7-3.2
	c-2-2-2.7-7.3-2.7-15.9v-4v-0.4c0-3,0.2-6.8,1-10.9c0.8-4.6,1-9.5,1-13.1v-0.6c0-6.2-0.7-12.9-7.2-17.1c-5.6-3.6-15.4-0.4-16.4,0.2
	c-0.6,0.4-1,1.2-1,2c0,0.4,0.2,1,0.4,1.4C511,299.4,513.2,302.8,514.6,310.5z M561.2,345.4l-0.6,4.4c-1,7.5,1.2,16.3,7.5,17.5
	c4.4,0.8,10.5,0,12.3-2.6c0.4-0.4,0.8-1,0.8-4.6c0-2.8-0.2-7.1-0.8-13.1c0-0.4,0.2-0.6,0.4-0.8c2.4-0.8,4.2-0.8,5.2,0
	c2.8,2.4,2,11.3,0.6,16.9c-0.2,0.6,0,1.4,0.4,2c0.4,0.6,1,1,1.8,1l7.9,1c0.8,0,1.6-0.2,2.2-0.8c0.2-0.2,3.4-4,6.2-9.1
	c2.6-5,3.8-10.7,3.4-16.1c-0.6-6.9-5.2-11.7-11.9-12.5c-6-0.6-13.1,0.6-18.5,3.6c-0.4,0.2-0.8,0-1-0.2c-2.2-3.6-5.2-5.4-8.7-5.4
	c-2.4,0-4,0.6-5,1.6c-0.6,0.6-0.8,1.4-0.8,2.2C562.8,335.3,562,340.3,561.2,345.4z M617.8,328.6c4,2.4,10.3,1.4,14.3-2.4
	c3.6-3.4,4.4-8.5,2-12.9c-2.4-4.8-7.1-5.4-9.7-5.4h-0.2h-0.4c-2.4,0-8.9,1.2-10.5,8.9l0,0c-0.2,1-0.4,2.2-0.4,3.2
	C612.9,323.4,614.4,326.6,617.8,328.6z M612.1,364.1c0.2,0.2,0.4,0.4,0.4,0.6c0,0.2-0.2,0.4-0.4,0.6c-0.8,0.6-1.4,1.4-1.6,2.6
	c-0.2,0.4-0.2,1-0.2,1.4c0,2.8,1.4,7.1,5.4,11.3c6.8,7.1,18.5,9.3,26.2,7.7c7.3-1.4,13.3-6,15.7-11.9c0.6-1.8,1-3.6,1-5.4
	c0-3.4-1.2-6.8-3.6-9.9c-1.8-2.4-4.2-4.4-6.6-6.2c-3.4-2.8-4.4-3.6-4.4-4c0-0.2,0-0.4,0-0.6c0-0.2,0.2-0.4,0.4-0.4
	c1.4-0.4,4.8,0.8,7.2,2.6c3.8,2.8,7,3.4,9.1,1.6c3.2-2.4,2.8-8.1,0.8-12.9c-1.4-3.2-4-5.4-7.5-6.4c-6-1.6-13.5,0.8-17.5,4
	c-8.1,6.6-5.8,13.3-3.8,19.1c0.8,2.2,1.6,4.6,2,7.1c0.4,2.2-0.4,3.2-1,3.8c-2.4,2.2-8.5,1.8-13.1,0.4c-2.2-0.8-3.2-1.6-4-2.4
	c-0.2-0.2-0.2-0.4-0.2-0.8c0.2-0.2,0.4-0.4,0.6-0.4c6-0.2,7.9-8.1,8.9-12.1l0.2-0.8c0.4-1.2,0.8-2.6,1.2-3.8c1-2.8,1.8-5.6,1.8-8.1
	c0-2-0.6-3.6-1.6-5c-3.6-4.4-13.1-2-15.1-1.6l0,0c-0.6,0.2-1.2,0.6-1.6,1.4c-0.2,0.4-0.2,0.6-0.2,1c0,0.2,0,0.6,0.2,1
	c0,0,0.2,1,0.2,3c0,2.2-0.4,6.2-2,12.3c-0.4,1.2-0.8,3.2-0.8,5c0,1.8,0.4,3.2,1.2,4.4C610.5,362.9,611.1,363.7,612.1,364.1z
	 M584.9,315.9c5.8,2.2,10.8-0.6,13.4-4c2.6-3.4,4.4-9.1,0.6-14.7c-3.4-5-7.5-4.8-9.9-4.4l0,0c-5.2,1-10.5,6.2-11.7,11.7l-0.3,0.6
	v0.8v0.2C577,307.7,577.8,313.1,584.9,315.9z M352.8,408.4c3.8,1.6,8.8,0.4,14-3.2c3.4-2.4,5.2-9.3,5.2-18.5v-1.6
	c0-6.9-1-14.1-3-17.7c0,0,0,0,0-0.2c0-0.2,0.4-0.6,0.6-0.8c0.2-0.2,0.6-0.6,0.8-0.6l0,0h0.4c0.2,0,1,0.6,1.8,1.6
	c1.2,1.8,1.4,4,1.4,6.2c0,2.8,0.2,6.8,4.6,8.2c5,1.4,9.9-0.9,10.5-1.3c0.4-0.2,0.8-0.6,1-1c0.2-0.4,1.2-2.6,1.2-5.5l-0.2-1.6
	c-0.2-1.6-0.1-3.6-1.1-5.6v-0.2c0-0.2,0-0.4,0.2-0.6c0.2-0.2,0.4-0.2,0.8-0.2c3,1.2,4.6,4.6,4.6,10.1c0,5.8-1.8,11.5-1.8,11.7
	c0,0.2,0,0.6-0.2,0.8c0,0.6,0.2,1,0.4,1.4c0.4,0.6,1.2,1,2,1l11.1-0.2c0.6,0,1.2-0.4,1.8-0.8c0.2-0.2,6.2-6.9,5.8-22.4
	c-0.2-7.7-2.6-13.9-7.1-17.7c-3.8-3.4-8.5-4.8-14.1-4.2c-6.4,0.6-9.7,4.1-11.3,7.5c0,0.2-0.2-0.2-0.4-0.2c-0.2,0-0.4,0-0.6,0
	c-2.4,0-4.8-1.5-7.1-1.5c-3.8-0.2-6.8,1.9-8.5,3.3c-0.2,0.2-0.8,0.4-1,0.2c-1.4-1.6-3.8-3.5-6.9-3.7c-5.8-0.4-7.9,2.8-8.1,3.2
	c-0.2,0.4-0.4,1-0.4,1.4c0,0,0.4,5.4-0.2,11.1c-0.6,6-1.2,10.5-1.6,14.5c-1,7.5-1.6,12.5-0.6,18.9
	C347.8,405.2,350.6,407.4,352.8,408.4z M449.1,428c-2-1.4-5.8-3.8-8.5-14.5c-3.4-13.5-4.2-31.2-4.6-38.3c0-0.2,0-0.4,0.2-0.6
	c0.2-0.2,0.4-0.2,0.6-0.2c4.6,0.8,13.1,1.8,20.1-2.8c4.6-3,7.5-7.7,8.9-14.1c0-0.4,0.4-0.6,0.6-0.6c0.4,0,0.6,0.2,0.6,0.6
	c0.6,1.8,1.2,3.6,2,5.2c4.2,7.5,11.7,11.3,20.4,10.5c12.5-1.2,18.5-7.9,19.9-13.3c0.6-2.6,0.2-5-1.4-6c-2.2-1.4-4-0.2-5.2,0.6
	c-1.6,1.2-4.6,3.2-11.7,2.8c-3-0.2-5.4-1.2-6.9-3c-0.2-0.2-0.2-0.6-0.2-0.8c0.2-0.2,0.4-0.4,0.6-0.4c3,0,7.7,0,13.9-1
	c5-0.8,8.9-3.2,10.9-6.8c1.6-3,1.8-6.8,0.2-10.1c-2.6-6-7.7-9.7-14.5-10.3c-8.7-1-18.9,3.2-23.8,9.5c-2,2.6-3.6,5.8-4.4,9.1
	c0,0.2-0.4,0.6-0.6,0.6c-0.4,0-0.6-0.2-0.6-0.4c-1-3-2.4-5.8-4.4-7.7c-3.2-3.4-7.1-5.4-11.7-5.4c-6-0.2-12.5,2.2-16.5,6
	c-2.6,2.6-4.6,4.8-6.4,7.5c0,0.2-0.2,0.2-0.4,0.4c-0.2,0-0.4,0-0.6-0.2c-2.6-1.8-5-2.4-8.5-2.4c-7.9,0-8.3,4.4-8.3,5
	c0,0.6,0.2,1.2,0.6,1.8c0,0,2,2.2,3.8,4.4c7.9,10.1,6.8,27,6,33.9c-0.6,4.8-2,9.1-3.4,13.5c-2.8,8.9-5.6,18.1-1,28.2
	c4,8.9,12.7,12.5,23.6,10.1c3.2-0.8,12.5-3.6,12.5-7.3C451.7,429.6,450.1,428.6,449.1,428z M483,343.1c2-2.4,3.7-3.4,5.7-3.2
	c1.6,0,2.3,0.6,2.3,1.8v0.2c0,0.8-0.4,1.6-1.8,2c-2,0.6-5,0.4-5.8,0.4c-0.2,0-0.4-0.2-0.4-0.4C483,343.7,483,343.3,483,343.1z
	 M435.2,359.3c0.4-2.2,4.4-8.3,7.1-9.1c0.4,0,0.6,0,0.8,0.4l0.2,0.4c0.4,0.8,0.6,1.8,0.6,2.8c0,2.6-1,5.8-3.2,7.1
	c-1.4,1-3.2,0.8-5.4-1C435.2,359.9,435,359.5,435.2,359.3z M661.7,414.3c-0.4-0.2-10.9-6.9-31-13.7c-18.5-6.2-48.8-13.5-88.5-13.5
	c-31.2,0-63.9,4.2-97.3,12.1c-1.2,0.2-2,1.4-1.8,2.8c0.6,3.8,1.2,7.3,2,10.3c1,3.6,2,6.2,3.2,8.1c0.6,1,1.8,1.4,2.8,1
	c32.6-9.5,65.5-14.5,98.1-14.5c71.9,0,107.4,20.1,107.6,20.3c0.6,0.4,1.4,0.4,2,0.2c1.8-0.6,4.6-3,4.6-8.1c0-2.8-0.6-4-1-4.4
	C662.3,414.9,662.1,414.5,661.7,414.3z M411.3,430.4c-2.4-5.4-3.4-10.9-2.6-17.3c0-0.8-0.2-1.6-0.8-2.2c-0.6-0.6-1.6-0.6-2.2-0.4
	c-104.4,34.1-182.1,94.7-182.8,95.3c-0.4,0.4-0.8,0.8-0.8,1.4c0,0.4-2.4,8.9-2.4,20.8c0,24.2,10.9,34.9,11.5,35.3
	c0.4,0.4,1.2,0.8,1.8,0.6c0.6,0,1.4-0.4,1.8-0.8c0.2-0.2,17.5-20.8,47.6-46.9c28-23.8,72.9-57.2,128.8-80.6c0.6-0.2,1-0.8,1.4-1.4
	c0.2-0.6,0.2-1.4-0.2-2L411.3,430.4z M243.4,473.1c2.2,0.8,4.8-0.2,21.6-11.1c10.9-7.1,17.7-16.5,18.3-26
	c0.8-10.5,6.2-27.2,12.5-34.3c4.8-5.4,14.7-12.5,18.9-11.1c1.2,0.4,2,1.8,2.2,4.2c1.8,13.9-4.4,29.4-4.4,29.6
	c-0.4,0.8-0.2,1.8,0.4,2.4c0.6,0.6,1.4,1,2.4,0.8c1-0.2,25.8-5.4,27.6-23.4c1.8-16.5,1-37.9-2-58.4c-1.6-10.9-2.2-27.8-2.2-28
	c0-0.8-0.4-1.6-1.2-2c-9.1-5.6-24.2,1.8-31.8,6.9c-9.9,6.9-22.2,21.6-29.2,35.3c-13.7,26.4-24.4,49.6-31.6,78
	c-3,11.9-4,20.4-4.2,25.4C240.4,471.9,242.4,472.7,243.4,473.1z M304.1,364.3c4-9.1,10.9-17.9,14.7-19.1c0.8-0.2,1.2-0.2,1.6,0.2
	c1.4,1.4,1.6,5.2,1.6,8.1c0,4.4-0.6,8.5-1,9.7c-0.8,1.8-9.3,6.2-18.3,9.1c-0.2,0-0.4,0-0.6-0.2c-0.2-0.2-0.2-0.4-0.2-0.6
	C301.8,370.7,302.4,368.3,304.1,364.3z"/>
<g>
	<path fill="#005880" d="M614.2,336.3c-0.4,0-0.6,0.4-0.6,0.8c0.2,0.6,0.4,1.6,0.4,3.2c0,3.4-0.8,7.7-2.2,12.9
		c-0.4,1.8-0.8,3.2-0.8,4.4s0.2,2.2,0.8,3c0.8,1.2,2.2,2,4.4,2.4c5,0.8,6.6-5.6,7.7-10.1l0.2-0.8c0.4-1.4,0.8-2.6,1.2-4
		c1.4-4.4,2.8-8.3,0.6-10.9C623.6,334.3,615.8,336.1,614.2,336.3z"/>
	<path fill="#005880" d="M638.5,340.9c-3.6,3-4.8,5.8-4.8,8.5c0,2.6,1,5.2,1.8,7.7c0.8,2.4,1.8,4.8,2.2,7.5c0,0.4,0.2,1,0.2,1.4
		c0,2-0.6,3.4-2,4.6c-3.6,3.2-11.3,2.2-15.5,0.8c-3.2-1-4.6-2.7-5.6-3.7c-0.4-0.6-0.8-0.9-1-0.9s-0.4,0-0.4,0
		c-0.4,0-0.6,0.7-0.8,1.3c-0.4,1.8,0.4,6.2,4.6,10.6c6,6.2,16.9,8.6,24,7.2c6.4-1.2,11.9-5.3,13.9-10.5c1.2-3,1.8-7.7-2.2-13.1
		c-1.6-2-3.8-3.8-6-5.6c-3-2.4-5.6-4.4-5.4-6.4c0.2-1.4,0.8-2.2,1.8-2.6c2.6-1,7.3,1,9.9,3c3.4,2.6,5.4,2.4,6.2,1.6
		c2-1.6,1.6-6.4,0-10.1c-1-2.6-3-4.2-6-5C648.6,336.1,641.8,338.1,638.5,340.9z"/>
	<path fill="#005880" d="M568.4,329.4L568.4,329.4c-2,0-2.5,0.2-2.7,0.6c-0.2,0.2,0.3,0.2,0.3,0.4v1.8c0,4.8-1.1,9.1-1.9,13.7
		l-0.8,4.4c-0.2,1.2-0.3,2.2-0.3,3.4c0,6.4,2.1,10.7,5.4,11.3c4.4,0.8,9.6-0.4,9.6-1.6c0,0,0,0,0-0.2c0-0.4,0.5-1.2,0.5-2.4
		c0-3.8-0.5-11.1-0.9-15.7l0,0l0,0c4.4-2,7.6-2.2,9.6-0.6c1.8,1.6,2.8,4.6,2.8,8.9c0,4-0.8,8.1-1.2,9.5c0,0.2,0,0.4,0.2,0.6
		c0.2,0.2,0.2,0.2,0.4,0.2l7,0.8c0.2,0,0.4,0,0.6-0.2c0.8-1,3.5-4.4,5.7-8.3c2.2-4,3.3-8.5,3.3-12.9v-1.8c-1-5.8-4.3-9.1-9.9-9.9
		c-6.8-0.8-15,0.6-19.9,5.4l0,0C576.4,335.1,574.1,329.2,568.4,329.4z"/>
	<path fill="#005880" d="M547.1,327L547.1,327c-2.4,0.6-3.8,1.6-4.2,3.2c-0.8,2.8-2,8.9-2,17.9v2.6c0,4,0.6,6.2,2,7.5
		c1.2,1,2.8,1.4,5,1.2c2-0.2,5.6-1.4,6.7-4c1-2,0.6-5.6,0.4-8.3l-0.2-1.6c-0.2-3.4-0.2-6.8,0-9.7c0.2-4.4,0.2-7.1-0.8-8.1
		C553.5,327,549.9,326.4,547.1,327z"/>
	<path fill="#005880" d="M513.6,297.8c-0.2,0-0.6,0.2-0.6,0.4c0,0.2,0,0.4,0,0.6c1,1.6,2.8,5.2,4,11.5c0.6,3.4,1.1,8.1,1.1,13.3
		c0,5.4-0.3,11.3-0.9,16.5l-0.6,4c-0.6,5-1.2,8.7-1.2,12.1c0,2.4,0.2,4.4,0.8,6.6c1.8,8.1,9.1,10.5,15.1,10.1
		c10.3-0.8,13.3-4.4,14.1-6c0.4-0.8,0.6-1.6,0.6-2l-0.2-0.6c0-0.4-0.2-0.4-0.4-0.4h-1.2c-2.2,0-6.3-0.2-10.5-4.4
		c-2.4-2.4-3.7-8.3-3.7-17.3v-4.4v-0.4c0-3,0.9-6.9,1.5-11.3c0.8-4.6,1.5-9.3,1.5-12.7v-0.4c0-6-0.9-11.5-6.4-15.1
		C522.8,295.4,516.2,297,513.6,297.8z"/>
	<path fill="#005880" d="M473.7,335.9L473.7,335.9c-5.6,7.3-6.4,17.7-2.2,25.6c3.6,6.6,10.3,9.9,18.1,9.3c11.3-1,16.5-6.8,17.7-11.5
		c0.4-1.6,0.2-3-0.4-3.4c-0.8-0.6-1.4,0-2.4,0.6c-1.8,1.2-5.2,3.6-13.3,3.2c-10.3-0.6-11.1-8.9-11.3-9.3l0,0c0,0,7.1,1.2,18.5-0.6
		c4.4-0.6,7.5-2.6,9.1-5.6c1.4-2.4,1.4-5.2,0-8.1c-3-6.6-8.5-8.5-12.5-8.9C487.4,326.4,478.1,330.2,473.7,335.9z M489,338.1
		c2.6,0,4.2,1.4,4.2,3.6c0,2-1,3.2-3.2,4c-3,1-8.7,0.4-9.7,0C480.6,340.7,485.2,337.9,489,338.1z"/>
	<path fill="#005880" d="M435.2,338.1c-3.8,3.6-5.8,6-7.5,10.3l0,0c-3.8-3.4-5.8-4.2-9.9-4.2c-4.2,0-5.4,1.4-5.8,2.2
		c-0.2,0.2,0,0.6,0.2,0.8c0.6,0.6,2.2,2.4,3.8,4.4c4.8,6,7.1,14.5,7.1,25.4c0,3.4-0.2,6.8-0.6,10.3c-0.6,5-2,9.5-3.4,13.9
		c-1.8,5.6-3.4,10.7-3.4,16.3c0,3.6,0.8,6.9,2.2,10.3c2.8,6.2,7.7,9.3,14.7,9.5c7.9,0.2,15.5-4,16.4-5.2c0-0.2,0-0.2,0-0.4
		c0-0.2,0-0.2,0-0.4c0-0.4-0.2-0.6-1-1c-2.2-1.4-6.4-4.2-9.4-15.9c-4.4-17.7-4.5-42.7-4.5-42.9l0,0c0.2,0,13.1,4.4,22.1-1.6
		c5.2-3.4,8.2-9.7,8.8-18.5c0.4-5.2-1.4-10.3-4.6-13.9c-2.6-3-6.2-4.6-10.1-4.6C444.5,332.5,438.5,334.7,435.2,338.1z M433,361.3
		L433,361.3c-0.4-0.2-0.4-0.8-0.4-1.4c0-0.6,0.2-1.6,0.6-2.4c1.4-3.8,6-9.5,9.3-9.7c1.2,0,2.2,0.8,3,2.4c1.8,4.2,0.2,10.3-3.4,12.9
		C440.5,364.1,437.4,365.3,433,361.3z"/>
	<path fill="#005880" d="M393.7,347.8L393.7,347.8c-9.1,1-10.7,10.1-10.7,10.5l0,0l0,0c0-0.2-3.4-4.2-8.9-4.4
		c-5.6-0.2-9.1,4.8-9.1,4.8l0,0l0,0c0,0-2.6-5.4-7.1-5.8c-3.6-0.2-5.2,1.2-5.8,1.8c-0.2,0.2-0.2,0.4-0.2,0.4c0,0.6,0.2,2.4,0.2,4.6
		c0,2.4,0,4.6-0.2,6.6c-0.6,6-1.2,10.7-1.6,14.7c-0.6,5-1,8.5-1,12.1c0,2,0.2,4,0.4,6c0.6,3.6,2,5.8,4.4,6.8c3,1.2,6.8,0.2,11.2-3
		c2.2-1.6,3.8-7.3,3.8-16.5c0-0.6,0-1,0-1.6c0-9.5-2.3-19.7-2.3-19.7l0,0c0,0,2.2-1.6,4.6-1.4c1.2,0.2,2.5,0.8,3.5,2.2
		c1.8,2.4,1.9,5,2.1,7.3c0,2.8,0.2,5,2.8,5.8c3.6,1,7.4-0.4,8.4-1c0.2,0,0.6-0.2,0.7-0.4c0.2-0.6,1.1-2.2,1.1-4.2v-1.2
		c-2-5.2-2.7-8.7-2.7-8.7l0,0c0,0,1.2-1.8,5.2-0.2c4.2,1.6,6.1,5.8,6.1,12.3c0,2-0.2,4-0.6,6.4c-0.2,1.8-0.6,3.4-0.8,4.4l-0.2,0.8
		c0,0.2,0,0.4,0.2,0.6c0.2,0.2,0.4,0.2,0.6,0.2l9.7-0.2c0.2,0,0.4-0.2,0.6-0.2c0.8-1,5-6.9,5-19.1v-1.4c0-6.9-2.6-12.5-6.4-15.9
		C402.8,348.6,398.4,347.4,393.7,347.8z"/>
	<path fill="#005880" d="M307.3,324.4c-9.5,6.8-21.4,21.2-28.4,34.5c-13.7,26.2-24.2,49.4-31.4,77.4c-3.6,14.5-4.2,23.8-4.2,28.2
		c0,1.8,0.2,5.2,0.8,6c0.2,0.2,0.2,0.2,0.4,0.2c1.6,0.2,7.7-3.6,19.3-10.9c10.3-6.6,16.5-15.5,17.1-24.2
		c0.8-11.1,6.4-28.2,13.1-35.9c4.6-5,15.5-13.7,21.2-11.9c2.2,0.6,3.6,2.8,4,6.2c0.2,1.8,0.4,3.6,0.4,5.4c0,10.3-3.2,20.4-4.6,24.2
		c0,0.2,0,0.6,0.2,0.6c0.2,0.2,0.4,0.2,0.6,0.2c5.4-1.4,23-6.9,24.4-21c0.6-5.8,1-12.3,1-19.3c0-12.3-1-25.6-2.8-38.5
		c-1.4-10.1-2-25-2.2-28c0-0.2-0.2-0.4-0.4-0.6C328.4,313.3,314.7,319.2,307.3,324.4z M299.4,372.4c0-0.8,0.2-1.8,0.4-3
		c2-8.3,11.9-24.6,18.5-26.4c1.8-0.4,3.2-0.2,4.2,1.2c3.8,4.4,1.8,18.5,0.8,20.4c-1.6,3.4-12.9,8.3-20.1,10.5
		c-1.4,0.4-2.4,0.4-3-0.2C299.6,374.4,299.4,373.6,299.4,372.4z"/>
	<path fill="#005880" d="M446.1,401.6c-0.4,0-0.6,0.4-0.6,0.8c0.6,3.6,1.2,6.8,2,9.5c0.8,3,1.6,5.4,2.6,7.1c0.2,0.2,0.4,0.4,0.8,0.4
		c32.8-9.5,65.7-14.5,98.3-14.5c69.3,0,104.8,18.5,108.6,20.4c0.2,0.2,0.4,0.2,0.6,0c0.8-0.4,2.6-1.8,2.6-5.8c0-1.6-0.2-2.6-0.4-3
		c0-0.2-0.2-0.2-0.2-0.4c-1.8-1-44.5-26.6-117.9-26.6C511.4,389.5,479,393.7,446.1,401.6z M405.4,413.1
		c-101.8,33.6-177.9,91.9-181.1,94.5c-0.2,0-0.2,0.2-0.2,0.4c-0.4,1.4-2.2,9.3-2.2,19.9c0,19.9,7.7,30.4,10.1,33.2
		c0.2,0.2,0.4,0.2,0.6,0.2s0.4,0,0.6-0.2c3.2-3.6,19.9-22.8,47.4-46.5c28-23.8,72.8-57.4,129-80.6c0.2,0,0.3-0.2,0.3-0.4
		c0-0.2,0-0.4,0-0.6l-0.7-1.6c-2-4.6-2.9-9.1-2.9-14.1c0-1,0-2.2,0.2-3.4c0-0.2,0-0.4-0.2-0.6C405.8,413.1,405.6,413.1,405.4,413.1z
		"/>
</g>
<path fill="#B5041E" d="M624,310.9c-4,0.2-7.3,1.6-8.5,6.6c-0.8,4.2,0.4,6.9,3.4,8.7c5.8,3.4,17.5-2.8,12.9-11.7
	c-2-3.8-6.4-4.2-9.5-3.4"/>
<path fill="#F8DB00" d="M589.6,295.2c-4.4,0.8-8.6,5.6-9.6,10.1c0,0,0,0,0,0.2v0.8c0,1.6,0.4,5.4,6,7.3c4.6,1.6,8.5-0.6,10.4-3.2
	c2.2-2.8,3.4-7.3,0.4-11.7C594.5,295,591.6,294.8,589.6,295.2z"/>
<path fill="#64A138" d="M547.1,317.6c8.7,3.2,16.1-7.3,10.9-14.9c-5.8-8.3-15.7-0.2-17.1,6.8C541,309.5,540,315.1,547.1,317.6z"/>
<path fill="none" stroke="#000000" stroke-width="8.7718" stroke-linejoin="round" stroke-miterlimit="10" d="M768.5,331.2
	c-17.1-2.4-21.6,4.4-24.6,26.2c-2.7,19.9-2,43.6-2,43.6s19.9,6.4,33.3,8.1c10.3,1.3,14.7-1.2,16.8-15.2c1.1-7,0.1-10.6,0.1-10.6
	s-8,1.4-14.5,1.5c-6.5,0-12.4-0.8-12.4-0.8s0.3-8.2,4.9-24.3c3.2-11.3,9.9-22.9,9.9-22.9S777,332.4,768.5,331.2z"/>
<g>
	<path fill="#FFC700" d="M779.6,408c-1.2,0-2.5-0.1-4.1-0.3c-11.4-1.5-27.9-6.4-32.1-7.7c-0.1-4.8-0.3-25.1,2-42.4
		c2.7-19.7,6.5-25.4,17.3-25.4c1.7,0,3.5,0.1,5.6,0.4c5.8,0.8,8.8,3.2,10,4.3c-1.6,3-6.8,12.7-9.5,22.3c-4.6,16.1-4.9,24.3-5,24.7
		c0,0.8,0.5,1.2,1.3,1.3c0.2,0,5.9,0.6,12.2,0.6h0.4c4.9,0,10.6-0.7,13.3-1.1c0.2,1.6,0.3,4.6-0.4,8.8
		C788.8,405.7,785.5,408,779.6,408z"/>
	<path fill="#FFFFFF" d="M762.7,333.6c1.6,0,3.4,0.1,5.4,0.4c4.3,0.6,7,2.1,8.4,3.2c-2.1,3.9-6.6,12.8-9.1,21.6
		c-4.7,16.3-5,24.7-5,25c-0.1,1.5,1,2.9,2.5,3.1c0.2,0,6,0.9,12.4,0.9h0.4c4.2,0,8.9-0.7,11.9-1.1c0.1,1.6,0,3.8-0.5,6.7
		c-1.9,12.2-5,13-9.6,13c-1.1,0-2.4-0.1-3.9-0.3c-10.5-1.4-25.5-5.8-30.8-7.4c-0.1-6.2-0.1-25,2-41.1
		C749.4,338.8,752.8,333.6,762.7,333.6 M762.7,330.7c-12.4,0-16.2,7.6-18.7,26.7c-2.7,19.9-2,43.6-2,43.6s19.9,6.4,33.3,8.1
		c1.6,0.2,3,0.3,4.3,0.3c7.3,0,10.7-3.6,12.5-15.5c1.1-7,0.1-10.5,0.1-10.5s-8,1.5-14.5,1.5c-0.1,0-0.3,0-0.4,0
		c-6.3,0-12-0.8-12-0.8s0.3-8.2,4.9-24.4c3.2-11.3,9.9-22.9,9.9-22.9s-3.1-4.4-11.6-5.6C766.4,330.9,764.5,330.7,762.7,330.7
		L762.7,330.7z"/>
</g>
<path fill="none" stroke="#000000" stroke-width="8.7718" stroke-linejoin="round" stroke-miterlimit="10" d="M694.9,324.9
	c0,0-15.9,7.6-15.5,15.5c0.3,5.7,19.1,24.7,19.1,24.7s-8.1,9.3-14.1,13.9c-6.3,4.8-9.8,7.5-9.8,7.5s5,10.4,14.8,9.9
	c4.1-0.2,19.2-16.2,19.2-16.2s14.2,19.4,18.6,19.2c6-0.3,16.4-12.6,16.4-12.6s-5.5-2.6-12.1-8.5c-6-5.5-11.3-11-11.3-11
	s5.1-6,11.7-11.8c5.8-5.2,13-9.9,13-9.9s-4.1-14.3-13.9-13.8c-6,0.3-21.2,21.5-21.2,21.5s-4.6-6.1-8.2-13.2
	C697.9,332.7,694.9,324.9,694.9,324.9z"/>
<g>
	<path fill="#FFC700" d="M727.1,397.9c-2.2,0-10.8-9.6-17.3-18.6c-0.3-0.4-0.7-0.6-1.1-0.6c0,0-0.1,0-0.1,0c-0.4,0-0.8,0.2-1.1,0.5
		c-7.1,7.5-16,15.7-18.2,15.8c-0.2,0-0.4,0-0.6,0c-6.6,0-10.8-5.7-12.2-8c1.5-1.1,4.5-3.4,8.8-6.8c6-4.6,13.9-13.7,14.3-14.1
		c0.5-0.6,0.5-1.4-0.1-2c-7.1-7.2-18.4-20-18.6-23.7c-0.3-5.1,8.5-10.8,13.2-13.4c1.1,2.7,3.4,8.4,6.2,13.7
		c3.7,7.1,8.2,13.3,8.3,13.5c0.3,0.4,0.7,0.7,1.2,0.7c0,0,0,0,0,0c0.5,0,0.9-0.4,1.2-0.8c6.2-8.6,16.5-20.8,20.1-21
		c0.2,0,0.3,0,0.4,0c6.8,0,10.5,8.7,11.6,11.7c-2.1,1.5-7.5,5.2-12.2,9.4c-6.5,5.8-11.6,11.7-11.8,12c-0.5,0.6-0.5,1.4,0.1,2
		c0.1,0.1,5.4,5.6,11.4,11.1c4.5,4.1,8.6,6.7,10.7,7.9C737.8,390.9,731,397.9,727.1,397.9L727.1,397.9z"/>
	<path fill="#FFFFFF" d="M693.4,329c1.2,3,3.3,7.7,5.6,12.3c3.7,7.2,8.3,13.2,8.5,13.5c0.6,0.7,1.4,1.1,2.3,1.1c0,0,0,0,0,0
		c0.9,0,1.8-0.4,2.3-1.1c7.6-10.5,16.5-20,19-20.3c0.1,0,0.2,0,0.4,0c5.2,0,8.5,6.4,9.8,9.8c-2.6,1.8-7.3,5.2-11.4,8.8
		c-6.6,5.8-11.7,11.9-12,12.1c-1,1.1-0.9,2.8,0.1,3.9c0.2,0.2,5.4,5.7,11.4,11.1c3.7,3.4,7.1,5.7,9.4,7.1c-3.9,4.1-9.1,8.6-11.8,8.9
		c-2.1-0.7-9-8-16.3-18c-0.5-0.7-1.3-1.1-2.2-1.2c-0.1,0-0.1,0-0.2,0c-0.8,0-1.6,0.3-2.1,0.9c-6.5,6.9-15,14.7-17.3,15.3
		c-0.2,0-0.3,0-0.5,0c-5,0-8.5-3.8-10.3-6.2c1.7-1.3,4.3-3.3,7.7-5.9c6.1-4.7,14.2-13.9,14.5-14.3c1-1.2,0.9-2.9-0.1-4
		c-9.7-9.8-18-20.2-18.2-22.8C682.1,336.8,688,332.1,693.4,329 M694.9,324.9c0,0-15.9,7.6-15.5,15.5c0.3,5.7,19.1,24.7,19.1,24.7
		s-8.1,9.3-14.1,13.9c-6.3,4.8-9.8,7.5-9.8,7.5s4.8,9.9,14.1,9.9c0.2,0,0.5,0,0.7,0c4.1-0.2,19.2-16.2,19.2-16.2s14,19.2,18.5,19.2
		c0,0,0.1,0,0.1,0c6-0.3,16.4-12.6,16.4-12.6s-5.5-2.6-12.1-8.5c-6-5.5-11.3-11-11.3-11s5.1-6,11.7-11.8c5.8-5.2,13-9.9,13-9.9
		s-3.9-13.8-13.3-13.8c-0.2,0-0.3,0-0.5,0c-6,0.3-21.2,21.5-21.2,21.5s-4.6-6.1-8.2-13.2C697.9,332.7,694.9,324.9,694.9,324.9
		L694.9,324.9z"/>
</g>
</svg>
